<svg width="583" height="445" viewBox="0 0 583 445" fill="none" xmlns="http://www.w3.org/2000/svg">
<path d="M185.5 10C138.787 10 96.0676 32.9521 64.0179 57.3259C32.1631 81.5514 12.0175 106.292 10.5959 108.073C9.80139 109.072 9.80139 110.928 10.5959 111.927C12.0241 113.716 32.1689 138.452 64.0187 162.674C96.0685 187.048 138.788 210 185.5 210C232.211 210 274.931 187.048 306.981 162.674C338.855 138.434 359.006 113.679 360.407 111.923C361.198 110.925 361.198 109.075 360.407 108.077C359.006 106.321 338.855 81.5659 306.981 57.3259C274.932 32.9521 232.212 10 185.5 10ZM271.584 110C271.584 161.558 234.042 205.556 185.5 205.556C136.958 205.556 99.4158 161.558 99.4158 110C99.4158 58.442 136.958 14.4444 185.5 14.4444C234.042 14.4444 271.584 58.442 271.584 110Z" stroke="url(#paint0_linear)" stroke-width="20"/>
<path d="M173.228 85.2665C173.088 86.8239 173.016 88.4026 173.016 90C173.016 108.826 183.033 125.322 197.872 134.581C194.132 136.447 189.907 137.5 185.43 137.5C169.869 137.5 157.5 124.961 157.5 110C157.5 99.2595 163.874 89.7674 173.228 85.2665Z" stroke="url(#paint1_linear)" stroke-width="45"/>
<mask id="path-3-inside-1" fill="white">
<path d="M237 252C242.522 252 247 256.477 247 262V331C247 358.57 269.43 381 297 381H404.968C410.489 381 414.964 385.473 414.968 390.993L414.982 410.875L438.85 387.008C440.395 383.461 443.931 381 448.021 381H513C540.57 381 563 358.57 563 331V177C563 149.43 540.57 127 513 127H412C406.478 127 402 122.523 402 117C402 111.477 406.478 107 412 107H513C551.598 107 583 138.402 583 177V331C583 369.598 551.598 401 513 401H453.142L412.071 442.071C410.158 443.984 407.601 445 404.998 445C403.711 445 402.412 444.751 401.177 444.24C397.44 442.694 395.003 439.05 395 435.007L394.976 401H297C258.402 401 227 369.598 227 331V262C227 256.477 231.478 252 237 252Z"/>
</mask>
<path d="M414.968 390.993L439.968 390.975V390.975L414.968 390.993ZM414.982 410.875L432.659 428.553L390.024 471.186L389.982 410.893L414.982 410.875ZM438.85 387.008L461.77 396.992L459.878 401.336L456.527 404.686L438.85 387.008ZM453.142 401L435.464 383.322L442.787 376H453.142V401ZM412.071 442.071L429.749 459.749L412.071 442.071ZM401.177 444.24L410.734 421.139L410.735 421.139L401.177 444.24ZM395 435.007L370 435.026V435.025L395 435.007ZM394.976 401V376H419.958L419.976 400.982L394.976 401ZM237 227C256.327 227 272 242.668 272 262H222C222 270.286 228.717 277 237 277V227ZM272 262V331H222V262H272ZM272 331C272 344.763 283.237 356 297 356V406C255.623 406 222 372.377 222 331H272ZM297 356H404.968V406H297V356ZM404.968 356C424.292 356 439.954 371.657 439.968 390.975L389.968 391.011C389.974 399.289 396.687 406 404.968 406V356ZM439.968 390.975L439.982 410.857L389.982 410.893L389.968 391.011L439.968 390.975ZM397.305 393.197L421.173 369.33L456.527 404.686L432.659 428.553L397.305 393.197ZM415.93 377.024C421.321 364.647 433.672 356 448.021 356V406C454.19 406 459.469 402.275 461.77 396.992L415.93 377.024ZM448.021 356H513V406H448.021V356ZM513 356C526.763 356 538 344.763 538 331H588C588 372.377 554.377 406 513 406V356ZM538 331V177H588V331H538ZM538 177C538 163.237 526.763 152 513 152V102C554.377 102 588 135.623 588 177H538ZM513 152H412V102H513V152ZM412 152C392.673 152 377 136.332 377 117H427C427 108.714 420.283 102 412 102V152ZM377 117C377 97.6683 392.673 82 412 82V132C420.283 132 427 125.286 427 117H377ZM412 82H513V132H412V82ZM513 82C565.405 82 608 124.595 608 177H558C558 152.209 537.791 132 513 132V82ZM608 177V331H558V177H608ZM608 331C608 383.405 565.405 426 513 426V376C537.791 376 558 355.791 558 331H608ZM513 426H453.142V376H513V426ZM470.82 418.678L429.749 459.749L394.393 424.393L435.464 383.322L470.82 418.678ZM429.749 459.749C423.048 466.449 414.09 470 404.998 470V420C401.112 420 397.268 421.519 394.393 424.393L429.749 459.749ZM404.998 470C400.485 470 395.934 469.126 391.619 467.341L410.735 421.139C408.89 420.376 406.937 420 404.998 420V470ZM391.62 467.341C378.54 461.93 370.011 449.175 370 435.026L420 434.988C419.995 428.925 416.34 423.458 410.734 421.139L391.62 467.341ZM370 435.025L369.976 401.018L419.976 400.982L420 434.989L370 435.025ZM394.976 426H297V376H394.976V426ZM297 426C244.595 426 202 383.405 202 331H252C252 355.791 272.209 376 297 376V426ZM202 331V262H252V331H202ZM202 262C202 242.668 217.673 227 237 227V277C245.283 277 252 270.286 252 262H202Z" fill="url(#paint2_linear)" mask="url(#path-3-inside-1)"/>
<mask id="path-5-inside-2" fill="white">
<path d="M308 256H519C524.522 256 529 260.477 529 266C529 271.523 524.522 276 519 276H308C302.477 276 298 271.523 298 266C298 260.477 302.478 256 308 256Z"/>
</mask>
<path d="M308 231H519V281H308V231ZM519 231C538.327 231 554 246.668 554 266H504C504 274.286 510.717 281 519 281V231ZM554 266C554 285.332 538.327 301 519 301V251C510.717 251 504 257.714 504 266H554ZM519 301H308V251H519V301ZM308 301C288.67 301 273 285.33 273 266H323C323 257.716 316.284 251 308 251V301ZM273 266C273 246.668 288.673 231 308 231V281C316.283 281 323 274.286 323 266H273Z" fill="url(#paint3_linear)" mask="url(#path-5-inside-2)"/>
<mask id="path-7-inside-3" fill="white">
<path d="M347.333 312H519C524.522 312 529 316.477 529 322C529 327.523 524.522 332 519 332H347.333C341.81 332 337.333 327.523 337.333 322C337.333 316.477 341.811 312 347.333 312Z"/>
</mask>
<path d="M347.333 287H519V337H347.333V287ZM519 287C538.327 287 554 302.668 554 322H504C504 330.286 510.717 337 519 337V287ZM554 322C554 341.332 538.327 357 519 357V307C510.717 307 504 313.714 504 322H554ZM519 357H347.333V307H519V357ZM347.333 357C328.003 357 312.333 341.33 312.333 322H362.333C362.333 313.716 355.617 307 347.333 307V357ZM312.333 322C312.333 302.668 328.006 287 347.333 287V337C355.616 337 362.333 330.286 362.333 322H312.333Z" fill="url(#paint4_linear)" mask="url(#path-7-inside-3)"/>
<mask id="path-9-inside-4" fill="white">
<path d="M373 200H519C524.522 200 529 204.477 529 210C529 215.523 524.522 220 519 220H373C367.477 220 363 215.523 363 210C363 204.477 367.478 200 373 200Z"/>
</mask>
<path d="M373 175H519V225H373V175ZM519 175C538.327 175 554 190.668 554 210H504C504 218.286 510.717 225 519 225V175ZM554 210C554 229.332 538.327 245 519 245V195C510.717 195 504 201.714 504 210H554ZM519 245H373V195H519V245ZM373 245C353.67 245 338 229.33 338 210H388C388 201.716 381.284 195 373 195V245ZM338 210C338 190.668 353.673 175 373 175V225C381.283 225 388 218.286 388 210H338Z" fill="url(#paint5_linear)" mask="url(#path-9-inside-4)"/>
<path d="M302.465 318.465C303.395 317.535 304.685 317 306 317C307.315 317 308.605 317.535 309.535 318.465C310.466 319.395 311 320.685 311 322C311 323.315 310.465 324.605 309.535 325.535C308.605 326.465 307.315 327 306 327C304.685 327 303.395 326.465 302.465 325.535C301.535 324.605 301 323.32 301 322C301 320.685 301.535 319.395 302.465 318.465Z" stroke="url(#paint6_linear)" stroke-width="10"/>
<defs>
<linearGradient id="paint0_linear" x1="283.5" y1="-46.5" x2="82" y2="294" gradientUnits="userSpaceOnUse">
<stop stop-color="#36D1DC"/>
<stop offset="1" stop-color="#5B86E5"/>
</linearGradient>
<linearGradient id="paint1_linear" x1="185" y1="60" x2="185" y2="160" gradientUnits="userSpaceOnUse">
<stop stop-color="#36D1DC"/>
<stop offset="1" stop-color="#5B86E5"/>
</linearGradient>
<linearGradient id="paint2_linear" x1="583" y1="107" x2="227" y2="445" gradientUnits="userSpaceOnUse">
<stop stop-color="#36D1DC"/>
<stop offset="1" stop-color="#5B86E5"/>
</linearGradient>
<linearGradient id="paint3_linear" x1="521" y1="256" x2="285.5" y2="286.5" gradientUnits="userSpaceOnUse">
<stop stop-color="#36D1DC"/>
<stop offset="1" stop-color="#5B86E5"/>
</linearGradient>
<linearGradient id="paint4_linear" x1="521" y1="312" x2="337" y2="332" gradientUnits="userSpaceOnUse">
<stop stop-color="#36D1DC"/>
<stop offset="1" stop-color="#5B86E5"/>
</linearGradient>
<linearGradient id="paint5_linear" x1="521" y1="200" x2="321.5" y2="265.5" gradientUnits="userSpaceOnUse">
<stop stop-color="#36D1DC"/>
<stop offset="1" stop-color="#5B86E5"/>
</linearGradient>
<linearGradient id="paint6_linear" x1="574" y1="118.5" x2="249" y2="350.5" gradientUnits="userSpaceOnUse">
<stop stop-color="#36D1DC"/>
<stop offset="1" stop-color="#5B86E5"/>
</linearGradient>
</defs>
</svg>
