<svg width="1557" height="475" viewBox="0 0 1557 475" fill="none" xmlns="http://www.w3.org/2000/svg">
<path d="M185.5 12C138.787 12 96.0676 34.9521 64.0179 59.3259C32.1631 83.5514 12.0175 108.292 10.5959 110.073C9.80139 111.072 9.80139 112.928 10.5959 113.927C12.0241 115.716 32.1689 140.452 64.0187 164.674C96.0685 189.048 138.788 212 185.5 212C232.211 212 274.931 189.048 306.981 164.674C338.855 140.434 359.006 115.679 360.407 113.923C361.198 112.925 361.198 111.075 360.407 110.077C359.006 108.321 338.855 83.5659 306.981 59.3259C274.932 34.9521 232.212 12 185.5 12ZM271.584 112C271.584 163.558 234.042 207.556 185.5 207.556C136.958 207.556 99.4158 163.558 99.4158 112C99.4158 60.442 136.958 16.4444 185.5 16.4444C234.042 16.4444 271.584 60.442 271.584 112Z" stroke="url(#paint0_linear)" stroke-width="20"/>
<path d="M173.228 87.2665C173.088 88.8239 173.016 90.4026 173.016 92C173.016 110.826 183.033 127.322 197.872 136.581C194.132 138.447 189.907 139.5 185.43 139.5C169.869 139.5 157.5 126.961 157.5 112C157.5 101.259 163.874 91.7674 173.228 87.2665Z" stroke="url(#paint1_linear)" stroke-width="45"/>
<mask id="path-3-inside-1" fill="white">
<path d="M237 254C242.522 254 247 258.477 247 264V333C247 360.57 269.43 383 297 383H404.968C410.489 383 414.964 387.473 414.968 392.993L414.982 412.875L438.85 389.008C440.395 385.461 443.931 383 448.021 383H513C540.57 383 563 360.57 563 333V179C563 151.43 540.57 129 513 129H412C406.478 129 402 124.523 402 119C402 113.477 406.478 109 412 109H513C551.598 109 583 140.402 583 179V333C583 371.598 551.598 403 513 403H453.142L412.071 444.071C410.158 445.984 407.601 447 404.998 447C403.711 447 402.412 446.751 401.177 446.24C397.44 444.694 395.003 441.05 395 437.007L394.976 403H297C258.402 403 227 371.598 227 333V264C227 258.477 231.478 254 237 254Z"/>
</mask>
<path d="M414.968 392.993L439.968 392.975L439.968 392.975L414.968 392.993ZM414.982 412.875L432.659 430.553L390.024 473.186L389.982 412.893L414.982 412.875ZM438.85 389.008L461.77 398.992L459.878 403.336L456.527 406.686L438.85 389.008ZM453.142 403L435.464 385.322L442.787 378H453.142V403ZM412.071 444.071L429.749 461.749L429.749 461.749L412.071 444.071ZM401.177 446.24L410.734 423.139L410.735 423.139L401.177 446.24ZM395 437.007L370 437.026L370 437.025L395 437.007ZM394.976 403V378H419.958L419.976 402.982L394.976 403ZM237 229C256.327 229 272 244.668 272 264H222C222 272.286 228.717 279 237 279V229ZM272 264V333H222V264H272ZM272 333C272 346.763 283.237 358 297 358V408C255.623 408 222 374.377 222 333H272ZM297 358H404.968V408H297V358ZM404.968 358C424.292 358 439.954 373.657 439.968 392.975L389.968 393.011C389.974 401.289 396.687 408 404.968 408V358ZM439.968 392.975L439.982 412.857L389.982 412.893L389.968 393.011L439.968 392.975ZM397.305 395.197L421.173 371.33L456.527 406.686L432.659 430.553L397.305 395.197ZM415.93 379.024C421.321 366.647 433.672 358 448.021 358V408C454.19 408 459.469 404.275 461.77 398.992L415.93 379.024ZM448.021 358H513V408H448.021V358ZM513 358C526.763 358 538 346.763 538 333H588C588 374.377 554.377 408 513 408V358ZM538 333V179H588V333H538ZM538 179C538 165.237 526.763 154 513 154V104C554.377 104 588 137.623 588 179H538ZM513 154H412V104H513V154ZM412 154C392.673 154 377 138.332 377 119H427C427 110.714 420.283 104 412 104V154ZM377 119C377 99.6683 392.673 84 412 84V134C420.283 134 427 127.286 427 119H377ZM412 84H513V134H412V84ZM513 84C565.405 84 608 126.595 608 179H558C558 154.209 537.791 134 513 134V84ZM608 179V333H558V179H608ZM608 333C608 385.405 565.405 428 513 428V378C537.791 378 558 357.791 558 333H608ZM513 428H453.142V378H513V428ZM470.82 420.678L429.749 461.749L394.393 426.393L435.464 385.322L470.82 420.678ZM429.749 461.749C423.048 468.449 414.09 472 404.998 472V422C401.112 422 397.268 423.519 394.393 426.393L429.749 461.749ZM404.998 472C400.485 472 395.934 471.126 391.619 469.341L410.735 423.139C408.89 422.376 406.937 422 404.998 422V472ZM391.62 469.341C378.54 463.93 370.011 451.175 370 437.026L420 436.988C419.995 430.925 416.34 425.458 410.734 423.139L391.62 469.341ZM370 437.025L369.976 403.018L419.976 402.982L420 436.989L370 437.025ZM394.976 428H297V378H394.976V428ZM297 428C244.595 428 202 385.405 202 333H252C252 357.791 272.209 378 297 378V428ZM202 333V264H252V333H202ZM202 264C202 244.668 217.673 229 237 229V279C245.283 279 252 272.286 252 264H202Z" fill="url(#paint2_linear)" mask="url(#path-3-inside-1)"/>
<mask id="path-5-inside-2" fill="white">
<path d="M308 258H519C524.522 258 529 262.477 529 268C529 273.523 524.522 278 519 278H308C302.477 278 298 273.523 298 268C298 262.477 302.478 258 308 258Z"/>
</mask>
<path d="M308 233H519V283H308V233ZM519 233C538.327 233 554 248.668 554 268H504C504 276.286 510.717 283 519 283V233ZM554 268C554 287.332 538.327 303 519 303V253C510.717 253 504 259.714 504 268H554ZM519 303H308V253H519V303ZM308 303C288.67 303 273 287.33 273 268H323C323 259.716 316.284 253 308 253V303ZM273 268C273 248.668 288.673 233 308 233V283C316.283 283 323 276.286 323 268H273Z" fill="url(#paint3_linear)" mask="url(#path-5-inside-2)"/>
<mask id="path-7-inside-3" fill="white">
<path d="M347.333 314H519C524.522 314 529 318.477 529 324C529 329.523 524.522 334 519 334H347.333C341.81 334 337.333 329.523 337.333 324C337.333 318.477 341.811 314 347.333 314Z"/>
</mask>
<path d="M347.333 289H519V339H347.333V289ZM519 289C538.327 289 554 304.668 554 324H504C504 332.286 510.717 339 519 339V289ZM554 324C554 343.332 538.327 359 519 359V309C510.717 309 504 315.714 504 324H554ZM519 359H347.333V309H519V359ZM347.333 359C328.003 359 312.333 343.33 312.333 324H362.333C362.333 315.716 355.617 309 347.333 309V359ZM312.333 324C312.333 304.668 328.006 289 347.333 289V339C355.616 339 362.333 332.286 362.333 324H312.333Z" fill="url(#paint4_linear)" mask="url(#path-7-inside-3)"/>
<mask id="path-9-inside-4" fill="white">
<path d="M373 202H519C524.522 202 529 206.477 529 212C529 217.523 524.522 222 519 222H373C367.477 222 363 217.523 363 212C363 206.477 367.478 202 373 202Z"/>
</mask>
<path d="M373 177H519V227H373V177ZM519 177C538.327 177 554 192.668 554 212H504C504 220.286 510.717 227 519 227V177ZM554 212C554 231.332 538.327 247 519 247V197C510.717 197 504 203.714 504 212H554ZM519 247H373V197H519V247ZM373 247C353.67 247 338 231.33 338 212H388C388 203.716 381.284 197 373 197V247ZM338 212C338 192.668 353.673 177 373 177V227C381.283 227 388 220.286 388 212H338Z" fill="url(#paint5_linear)" mask="url(#path-9-inside-4)"/>
<path d="M302.465 320.465C303.395 319.535 304.685 319 306 319C307.315 319 308.605 319.535 309.535 320.465C310.466 321.395 311 322.685 311 324C311 325.315 310.465 326.605 309.535 327.535C308.605 328.465 307.315 329 306 329C304.685 329 303.395 328.465 302.465 327.535C301.535 326.605 301 325.32 301 324C301 322.685 301.535 321.395 302.465 320.465Z" stroke="url(#paint6_linear)" stroke-width="10"/>
<path d="M781.865 146.16H724.525L710.425 180H676.82L754.84 0.224989H756.72L834.74 180H795.26L781.865 146.16ZM770.585 117.49L753.9 75.425L736.51 117.49H770.585ZM894.028 7.03999V180H859.953V7.03999H894.028ZM839.44 242.04L760.48 422.99L681.52 242.04H722.41L761.89 339.565L799.02 242.04H839.44ZM903.437 242.04V415H869.362V242.04H903.437ZM1040.43 283.87C1025.39 275.567 1012.31 271.415 1001.19 271.415C993.668 271.415 987.793 272.903 983.563 275.88C979.49 278.857 977.453 283.322 977.453 289.275C977.453 294.758 980.43 299.615 986.383 303.845C992.493 307.918 1000.56 311.835 1010.59 315.595C1018.73 318.572 1025.71 322.018 1031.5 325.935C1037.3 329.695 1042.08 334.943 1045.84 341.68C1049.75 348.417 1051.71 356.955 1051.71 367.295C1051.71 376.225 1049.36 384.528 1044.66 392.205C1040.12 399.725 1033.38 405.757 1024.45 410.3C1015.52 414.687 1004.87 416.88 992.493 416.88C982.153 416.88 971.891 415.392 961.708 412.415C951.525 409.282 942.046 404.582 933.273 398.315L948.313 371.76C954.266 376.147 961.081 379.75 968.758 382.57C976.435 385.39 983.328 386.8 989.438 386.8C996.645 386.8 1002.91 385.312 1008.24 382.335C1013.56 379.202 1016.23 374.188 1016.23 367.295C1016.23 358.365 1007.85 350.61 991.083 344.03C981.213 340.113 972.988 336.353 966.408 332.75C959.828 329.147 954.11 323.977 949.253 317.24C944.553 310.503 942.203 302.043 942.203 291.86C942.203 276.977 947.06 264.992 956.773 255.905C966.643 246.818 979.725 241.883 996.018 241.1C1008.86 241.1 1019.6 242.588 1028.21 245.565C1036.83 248.385 1045.21 252.458 1053.36 257.785L1040.43 283.87ZM1119.16 242.04V415H1085.08V242.04H1119.16ZM1153.23 328.755C1153.23 313.088 1157.14 298.44 1164.98 284.81C1172.97 271.18 1183.7 260.37 1197.17 252.38C1210.8 244.233 1225.53 240.16 1241.35 240.16C1257.17 240.16 1271.82 244.233 1285.3 252.38C1298.93 260.37 1309.74 271.18 1317.73 284.81C1325.87 298.44 1329.95 313.088 1329.95 328.755C1329.95 344.735 1325.87 359.462 1317.73 372.935C1309.74 386.408 1298.93 397.14 1285.3 405.13C1271.82 412.963 1257.17 416.88 1241.35 416.88C1225.37 416.88 1210.64 412.963 1197.17 405.13C1183.7 397.14 1172.97 386.408 1164.98 372.935C1157.14 359.462 1153.23 344.735 1153.23 328.755ZM1188.48 328.755C1188.48 338.782 1190.83 348.025 1195.53 356.485C1200.38 364.945 1206.88 371.682 1215.03 376.695C1223.33 381.552 1232.5 383.98 1242.53 383.98C1252.24 383.98 1261.09 381.552 1269.08 376.695C1277.07 371.682 1283.34 365.023 1287.88 356.72C1292.42 348.26 1294.7 338.938 1294.7 328.755C1294.7 318.415 1292.35 309.015 1287.65 300.555C1282.95 292.095 1276.52 285.437 1268.38 280.58C1260.39 275.567 1251.46 273.06 1241.59 273.06C1231.72 273.06 1222.71 275.567 1214.56 280.58C1206.57 285.437 1200.23 292.095 1195.53 300.555C1190.83 309.015 1188.48 318.415 1188.48 328.755ZM1519.72 242.04V422.05H1518.78L1397.76 312.775L1398.46 415H1363.92V235.225H1365.33L1486.12 346.145L1485.41 242.04H1519.72Z" fill="url(#paint7_linear)"/>
<defs>
<linearGradient id="paint0_linear" x1="283.5" y1="-44.5" x2="82" y2="296" gradientUnits="userSpaceOnUse">
<stop stop-color="#36D1DC"/>
<stop offset="1" stop-color="#5B86E5"/>
</linearGradient>
<linearGradient id="paint1_linear" x1="185" y1="62" x2="185" y2="162" gradientUnits="userSpaceOnUse">
<stop stop-color="#36D1DC"/>
<stop offset="1" stop-color="#5B86E5"/>
</linearGradient>
<linearGradient id="paint2_linear" x1="583" y1="109" x2="227" y2="447" gradientUnits="userSpaceOnUse">
<stop stop-color="#36D1DC"/>
<stop offset="1" stop-color="#5B86E5"/>
</linearGradient>
<linearGradient id="paint3_linear" x1="521" y1="258" x2="285.5" y2="288.5" gradientUnits="userSpaceOnUse">
<stop stop-color="#36D1DC"/>
<stop offset="1" stop-color="#5B86E5"/>
</linearGradient>
<linearGradient id="paint4_linear" x1="521" y1="314" x2="337" y2="334" gradientUnits="userSpaceOnUse">
<stop stop-color="#36D1DC"/>
<stop offset="1" stop-color="#5B86E5"/>
</linearGradient>
<linearGradient id="paint5_linear" x1="521" y1="202" x2="321.5" y2="267.5" gradientUnits="userSpaceOnUse">
<stop stop-color="#36D1DC"/>
<stop offset="1" stop-color="#5B86E5"/>
</linearGradient>
<linearGradient id="paint6_linear" x1="574" y1="120.5" x2="249" y2="352.5" gradientUnits="userSpaceOnUse">
<stop stop-color="#36D1DC"/>
<stop offset="1" stop-color="#5B86E5"/>
</linearGradient>
<linearGradient id="paint7_linear" x1="1412.34" y1="2.00008" x2="631.858" y2="307.246" gradientUnits="userSpaceOnUse">
<stop stop-color="#36D1DC"/>
<stop offset="1" stop-color="#5B86E5"/>
</linearGradient>
</defs>
</svg>
